<?xml version="1.0" standalone="no"?>
<!DOCTYPE svg PUBLIC "-//W3C//DTD SVG 20010904//EN"
 "http://www.w3.org/TR/2001/REC-SVG-20010904/DTD/svg10.dtd">
<svg version="1.0" xmlns="http://www.w3.org/2000/svg"
 width="700.000000pt" height="700.000000pt" viewBox="0 0 700.000000 700.000000"
 preserveAspectRatio="xMidYMid meet">
<metadata>
Created by potrace 1.14, written by Peter Selinger 2001-2017
</metadata>
<g transform="translate(0.000000,700.000000) scale(0.100000,-0.100000)"
fill="#000000" stroke="none">
<path d="M1104 6558 c-38 -4 -106 -18 -150 -32 -262 -84 -471 -329 -510 -601
-4 -27 -7 -1125 -7 -2440 1 -2129 2 -2397 16 -2456 36 -149 95 -259 195 -362
122 -126 280 -205 445 -223 80 -9 4701 -10 4788 -1 81 8 206 48 279 89 214
120 354 319 397 568 3 19 6 1108 6 2420 -1 2588 3 2424 -53 2572 -56 152 -205
314 -355 391 -63 31 -173 65 -239 74 -70 8 -4724 10 -4812 1z m1392 -1460 c11
-7 16 -177 5 -179 -30 -7 -74 -9 -181 -9 -124 0 -160 3 -181 15 -10 7 -11 146
0 163 3 6 20 12 36 14 51 6 309 3 321 -4z m1878 -195 c90 -178 100 -193 124
-193 859 -5 854 -5 912 -28 109 -43 178 -113 216 -217 16 -47 18 -115 19
-1100 1 -770 -2 -1062 -10 -1095 -35 -133 -131 -229 -265 -263 -46 -12 -338
-15 -1860 -15 -1050 0 -1826 4 -1854 9 -106 20 -203 83 -251 165 -57 98 -55
48 -52 1204 l2 1065 33 67 c35 72 100 138 162 165 86 38 125 40 648 41 282 0
515 2 517 3 1 2 46 90 98 195 l95 190 684 0 685 1 97 -194z"/>
<path d="M4595 4318 c-16 -6 -47 -27 -68 -47 -90 -85 -78 -231 25 -298 35 -24
52 -28 109 -28 59 0 73 4 110 30 55 39 83 94 82 160 -1 61 -20 101 -67 143
-54 47 -126 62 -191 40z"/>
<path d="M3423 4305 c-402 -89 -694 -444 -694 -844 0 -256 80 -449 261 -631
171 -171 358 -252 590 -253 151 -1 255 21 384 82 393 184 588 624 464 1046
-23 80 -76 191 -119 250 -42 58 -158 173 -199 198 -19 11 -37 24 -40 28 -13
17 -173 90 -240 109 -95 28 -313 35 -407 15z m277 -179 c127 -15 260 -85 371
-196 147 -146 206 -300 196 -515 -10 -218 -107 -396 -282 -519 -115 -82 -217
-115 -365 -121 -205 -9 -384 65 -523 215 -126 137 -183 287 -180 480 2 181 79
350 217 481 157 146 337 202 566 175z"/>
</g>
</svg>
