<svg width="303" height="30" viewBox="0 0 303 30" fill="none" xmlns="http://www.w3.org/2000/svg">
<path d="M0.199951 29H11.32V28.44C7.31995 27.92 6.11995 26.24 6.11995 22.2V3.83999H6.35995L16.76 29.04H18.2L27.52 3.83999H27.72V26.16C27.72 27.76 26.72 28.32 23.88 28.44V29H37.68V28.44C34.32 28.32 33.52 27.68 33.52 26.16V3.95998C33.52 2.43998 34.32 1.75998 37.68 1.63999V1.11999H27.4799L19.92 21.68H19.72L11.48 1.11999H0.199951V1.63999C3.63995 1.71998 5.11995 3.55998 5.11995 5.95998V22.2C5.11995 26.24 3.95995 27.96 0.199951 28.44V29Z" fill="black"/>
<path d="M57.4028 25.32C58.1628 27.44 57.4428 28.28 53.6028 28.44V29H67.9228V28.44C64.9228 28 64.3228 27.36 63.4428 25.04L54.4028 0.479984H51.6828L43.4028 21.92C41.7628 26.04 40.2428 27.76 37.6428 28.44V29H47.0828V28.44C43.3628 27.92 42.7228 26.4 44.3628 22.08L45.7228 18.4H54.9228L57.4028 25.32ZM46.0428 17.6L50.3628 6.03999H50.5628L54.6428 17.6H46.0428Z" fill="black"/>
<path d="M68.365 29H82.085C92.445 29 96.645 22.04 96.645 14.56C96.645 6.71998 91.605 1.11999 81.445 1.11999H68.365V1.63999C71.685 1.75998 72.525 2.43998 72.525 3.95998V26.16C72.525 27.68 71.685 28.32 68.365 28.44V29ZM78.365 28.24V1.83999H80.765C87.085 1.83999 90.285 4.67999 90.285 14.96C90.285 25.2 87.805 28.24 80.845 28.24H78.365Z" fill="black"/>
<path d="M107.232 29H121.072V28.44C118.192 28.32 117.232 27.8 117.232 26.16V14.92H128.512V26.16C128.512 27.8 127.512 28.32 124.632 28.44V29H138.512V28.44C135.152 28.32 134.352 27.72 134.352 26.16V3.91998C134.352 2.39999 135.152 1.75998 138.512 1.63999V1.11999H124.632V1.63999C127.512 1.75998 128.512 2.31998 128.512 3.91998V14.12H117.232V3.91998C117.232 2.31998 118.192 1.75998 121.072 1.63999V1.11999H107.232V1.63999C110.552 1.75998 111.392 2.39999 111.392 3.91998V26.16C111.392 27.72 110.552 28.32 107.232 28.44V29Z" fill="black"/>
<path d="M158.223 25.32C158.983 27.44 158.263 28.28 154.423 28.44V29H168.743V28.44C165.743 28 165.143 27.36 164.263 25.04L155.223 0.479984H152.503L144.223 21.92C142.583 26.04 141.063 27.76 138.463 28.44V29H147.903V28.44C144.183 27.92 143.543 26.4 145.183 22.08L146.543 18.4H155.743L158.223 25.32ZM146.863 17.6L151.183 6.03999H151.383L155.463 17.6H146.863Z" fill="black"/>
<path d="M172.25 29H187.37V28.44C183.81 28.36 182.73 27.68 182.73 26.16V1.83999H183.69C186.77 1.83999 189.17 4.91998 191.97 10.36L192.57 10.28L192.37 1.11999H167.21L166.97 10.28L167.57 10.36C170.41 4.79999 172.85 1.83999 175.89 1.83999H176.89V26.16C176.89 27.68 175.77 28.36 172.25 28.44V29Z" fill="black"/>
<path d="M200.727 29H215.847V28.44C212.287 28.36 211.207 27.68 211.207 26.16V1.83999H212.167C215.247 1.83999 217.647 4.91998 220.447 10.36L221.047 10.28L220.847 1.11999H195.687L195.447 10.28L196.047 10.36C198.887 4.79999 201.327 1.83999 204.367 1.83999H205.367V26.16C205.367 27.68 204.247 28.36 200.727 28.44V29Z" fill="black"/>
<path d="M223.99 29H248.91L249.11 18.96L248.51 18.88C245.59 25.76 243.75 28.24 237.95 28.24H233.99V14.88H235.67C238.87 14.88 240.71 16.28 241.79 20.4H242.31V8.71999H241.79C240.71 12.8 238.87 14.16 235.67 14.16H233.99V1.83999H238.15C243.07 1.83999 244.59 4.47999 247.39 10.68L247.99 10.64L247.87 1.11999H223.99V1.63999C227.31 1.75998 228.15 2.43998 228.15 3.95998V26.16C228.15 27.68 227.31 28.32 223.99 28.44V29Z" fill="black"/>
<path d="M262.584 14.56V1.83999H264.864C269.864 1.83999 271.384 4.23999 271.384 8.23998C271.384 12.76 270.304 14.56 265.304 14.56H262.584ZM262.584 15.24H264.824C269.384 15.24 270.464 16.6 270.864 20.64L271.184 24.12C271.504 27.64 272.344 29.2 277.344 29.2C278.664 29.2 280.104 29.08 281.584 28.84V28.36C278.264 28.28 277.704 27.76 277.224 24.52L276.984 21.44C276.464 17.68 274.904 15.08 269.024 14.88V14.76C275.304 13.88 277.504 11.32 277.504 7.87999C277.504 4.19999 274.544 1.11999 266.224 1.11999H252.584V1.63999C255.904 1.75998 256.744 2.43998 256.744 3.95998V26.16C256.744 27.68 255.904 28.32 252.584 28.44V29H266.544V28.44C263.624 28.32 262.584 27.76 262.584 26.16V15.24Z" fill="black"/>
<path d="M283.071 29.68H283.551L285.911 27.68C287.831 28.76 290.751 29.52 292.991 29.52C299.871 29.52 302.671 24.8 302.671 20.16C302.671 14.96 298.511 13.28 294.671 12.08C289.991 10.6 287.511 9.11999 287.511 5.99998C287.511 2.99998 289.911 1.35998 292.431 1.35998C295.551 1.35998 298.111 3.91999 300.751 9.39999H301.391V0.359985H300.911L299.151 2.11998C297.671 1.27999 295.391 0.599985 293.031 0.599985C287.431 0.599985 283.471 4.03999 283.471 9.31999C283.471 14.48 287.711 16.04 291.911 17.44C296.711 19.04 299.111 20.6 299.111 23.84C299.111 26.36 297.231 28.76 293.591 28.76C289.631 28.76 286.351 25.12 283.711 19.56H283.071V29.68Z" fill="black"/>
</svg>
