<svg width="432" height="133" viewBox="0 0 432 133" fill="none" xmlns="http://www.w3.org/2000/svg">
<path opacity="0.04" d="M157.403 0.873532C150.635 1.22974 139.326 1.40785 128.728 1.40785H115.816L82.1537 89.5701L45.375 0.873532C37.4493 1.22974 27.1191 1.40785 16.5219 1.40785C10.8225 1.40785 4.49974 1.22974 0.670477 0.873532V4.52469C12.2473 5.05901 14.3846 6.92912 14.3846 20.198V102.305C14.3846 119.937 12.3364 124.746 0.670477 126.349V130C4.49974 129.644 10.8225 129.466 16.5219 129.466C23.1118 129.466 31.5718 129.644 36.2916 130V126.349C20.173 124.746 18.5701 120.115 18.5701 100.078V12.6285L67.8162 130.267H70.755L114.658 15.7453V110.676C114.658 123.944 112.343 125.815 99.8752 126.349V130C106.109 129.644 117.062 129.466 128.728 129.466C139.326 129.466 150.635 129.644 157.403 130V126.349C145.826 125.815 143.689 123.944 143.689 110.676V20.198C143.689 6.92912 145.737 5.05901 157.403 4.52469V0.873532ZM211.458 33.1106C185.277 33.1106 166.843 46.8247 166.843 82.8911C166.843 119.047 185.277 132.583 211.458 132.583C237.729 132.583 256.163 119.047 256.163 82.8911C256.163 46.8247 237.729 33.1106 211.458 33.1106ZM211.458 36.7618C221.432 36.7618 228.645 50.2978 228.645 82.8911C228.645 115.573 221.432 128.931 211.458 128.931C201.573 128.931 194.36 115.573 194.36 82.8911C194.36 50.2978 201.573 36.7618 211.458 36.7618ZM330.166 33.1106C318.678 33.1106 309.862 40.8582 305.498 50.654V33.6449C297.839 35.426 289.023 36.2275 278.871 36.2275C275.22 36.2275 271.391 35.9603 267.562 35.6041V39.4334C276.378 39.4334 279.227 44.5984 279.227 55.5519V113.08C279.227 123.232 276.022 126.171 267.562 126.171V130C272.548 129.822 283.68 129.288 293.654 129.288C305.142 129.288 316.986 129.822 322.596 130V126.171C311.108 126.171 305.498 122.965 305.498 111.21V62.9433C305.498 53.1475 312.355 41.0363 322.062 39.4334C322.952 39.1662 323.843 38.9881 324.644 38.9881C325.535 38.9881 326.336 39.1662 327.049 39.4334C322.507 42.4612 319.034 46.8247 319.034 53.5037C319.034 60.6279 324.11 65.2587 332.659 65.2587C341.208 65.2587 346.818 58.9359 346.818 49.9416C346.818 41.7487 342.01 33.1106 330.166 33.1106ZM403.634 117.533C392.057 117.533 379.857 107.648 379.857 82.2677C379.857 79.329 379.946 76.3012 380.213 73.6296H431.24C431.24 45.0437 418.239 33.1106 396.955 33.1106C371.041 33.1106 352.34 49.9416 352.34 83.7816C352.34 117.087 369.794 132.583 394.373 132.583C414.588 132.583 426.521 117.889 430.884 104.175L427.589 102.928C420.198 115.039 410.936 117.533 403.634 117.533ZM395.887 37.0289C404.792 37.0289 408.621 52.346 408.265 70.1566H379.679C381.193 46.5576 387.694 37.0289 395.887 37.0289Z" fill="#23242C"/>
</svg>
