<svg width="84" height="62" viewBox="0 0 84 62" fill="none" xmlns="http://www.w3.org/2000/svg">
<path opacity="0.29" d="M33.3907 8.23399L32.5441 8.76616L32.5512 8.77752L32.5587 8.78869L33.3907 8.23399ZM36.8787 16.3L37.8435 16.0369L36.8787 16.3ZM32.3007 46.82L31.4595 46.2792L31.4549 46.2864L31.4504 46.2936L32.3007 46.82ZM15.2967 61.208L14.4023 61.6552L14.8357 62.5221L15.7158 62.116L15.2967 61.208ZM13.3347 57.284L12.9524 56.36L11.96 56.7706L12.4403 57.7312L13.3347 57.284ZM24.2347 49.218L23.484 48.5574L23.4764 48.566L23.469 48.5748L24.2347 49.218ZM29.9027 38.1L28.9326 37.8575L28.9214 37.9023L28.9143 37.9479L29.9027 38.1ZM29.9027 28.944L30.8514 28.6278L30.314 27.0155L29.1656 28.2683L29.9027 28.944ZM4.8327 29.816L4.14223 30.5394L4.15103 30.5478L4.16003 30.5559L4.8327 29.816ZM5.0507 5.39999L5.72497 6.13847L5.73354 6.13065L5.74193 6.12263L5.0507 5.39999ZM78.2987 8.23399L77.4521 8.76616L77.4592 8.77752L77.4667 8.78869L78.2987 8.23399ZM81.7867 16.3L82.7515 16.0369L81.7867 16.3ZM77.2087 46.82L76.3675 46.2792L76.3629 46.2864L76.3584 46.2936L77.2087 46.82ZM60.2047 61.208L59.3103 61.6552L59.7437 62.5221L60.6238 62.116L60.2047 61.208ZM58.2427 57.284L57.8604 56.36L56.868 56.7706L57.3483 57.7312L58.2427 57.284ZM69.1427 49.218L68.392 48.5574L68.3844 48.566L68.377 48.5748L69.1427 49.218ZM74.8107 38.1L73.8406 37.8575L73.8294 37.9023L73.8223 37.9479L74.8107 38.1ZM74.8107 28.944L75.7594 28.6278L75.222 27.0155L74.0736 28.2683L74.8107 28.944ZM49.7407 29.816L49.0502 30.5394L49.059 30.5478L49.068 30.5559L49.7407 29.816ZM49.9587 5.39999L50.633 6.13847L50.6415 6.13065L50.6499 6.12263L49.9587 5.39999ZM17.9127 1.60399C24.7645 1.60399 29.5661 4.02844 32.5441 8.76616L34.2373 7.70182C30.8207 2.26621 25.3036 -0.396014 17.9127 -0.396014V1.60399ZM32.5587 8.78869C33.939 10.8592 35.0631 13.4433 35.9139 16.5631L37.8435 16.0369C36.9503 12.762 35.7491 9.9688 34.2228 7.67929L32.5587 8.78869ZM35.9139 16.5631C36.7614 19.6703 37.1867 22.9242 37.1867 26.328H39.1867C39.1867 22.7558 38.7401 19.3243 37.8435 16.0369L35.9139 16.5631ZM37.1867 26.328C37.1867 33.7019 35.2754 40.3434 31.4595 46.2792L33.1419 47.3607C37.174 41.0886 39.1867 34.0687 39.1867 26.328H37.1867ZM31.4504 46.2936C27.7906 52.2056 22.286 56.8808 14.8776 60.3L15.7158 62.116C23.4221 58.5592 29.2534 53.6424 33.151 47.3463L31.4504 46.2936ZM16.1911 60.7608L14.2291 56.8368L12.4403 57.7312L14.4023 61.6552L16.1911 60.7608ZM13.7171 58.208C18.0863 56.4001 21.8494 53.6124 25.0004 49.8612L23.469 48.5748C20.5161 52.0902 17.0125 54.6799 12.9524 56.36L13.7171 58.208ZM24.9854 49.8786C28.2756 46.1398 30.2739 42.2638 30.8911 38.2521L28.9143 37.9479C28.3689 41.4935 26.5885 45.0295 23.484 48.5574L24.9854 49.8786ZM30.8728 38.3425C31.3263 36.5289 31.5567 34.7758 31.5567 33.086H29.5567C29.5567 34.5935 29.3512 36.1831 28.9326 37.8575L30.8728 38.3425ZM31.5567 33.086C31.5567 31.531 31.3232 30.0431 30.8514 28.6278L28.954 29.2602C29.3542 30.4609 29.5567 31.7343 29.5567 33.086H31.5567ZM29.1656 28.2683C26.1788 31.5265 22.2434 33.176 17.2587 33.176V35.176C22.738 35.176 27.2319 33.3375 30.6399 29.6197L29.1656 28.2683ZM17.2587 33.176C12.374 33.176 8.48673 31.7864 5.50538 29.0761L4.16003 30.5559C7.57335 33.659 11.9701 35.176 17.2587 35.176V33.176ZM5.52318 29.0926C2.55967 26.2638 1.0367 22.4031 1.0367 17.39H-0.963297C-0.963297 22.8409 0.711067 27.2642 4.14223 30.5394L5.52318 29.0926ZM1.0367 17.39C1.0367 12.7009 2.61016 8.98244 5.72497 6.13847L4.37643 4.6615C0.805914 7.92155 -0.963297 12.1965 -0.963297 17.39H1.0367ZM5.74193 6.12263C8.87366 3.12705 12.9017 1.60399 17.9127 1.60399V-0.396014C12.4597 -0.396014 7.91308 1.27825 4.35948 4.67735L5.74193 6.12263ZM62.8207 1.60399C69.6725 1.60399 74.4741 4.02844 77.4521 8.76616L79.1453 7.70182C75.7287 2.26621 70.2116 -0.396014 62.8207 -0.396014V1.60399ZM77.4667 8.78869C78.847 10.8592 79.9711 13.4433 80.8219 16.5631L82.7515 16.0369C81.8583 12.762 80.6571 9.9688 79.1308 7.67929L77.4667 8.78869ZM80.8219 16.5631C81.6694 19.6703 82.0947 22.9242 82.0947 26.328H84.0947C84.0947 22.7558 83.6481 19.3243 82.7515 16.0369L80.8219 16.5631ZM82.0947 26.328C82.0947 33.7019 80.1834 40.3434 76.3675 46.2792L78.0499 47.3607C82.082 41.0885 84.0947 34.0687 84.0947 26.328H82.0947ZM76.3584 46.2936C72.6986 52.2056 67.194 56.8808 59.7857 60.3L60.6238 62.116C68.3301 58.5592 74.1614 53.6424 78.059 47.3463L76.3584 46.2936ZM61.0991 60.7608L59.1371 56.8368L57.3483 57.7312L59.3103 61.6552L61.0991 60.7608ZM58.6251 58.208C62.9943 56.4001 66.7574 53.6124 69.9084 49.8612L68.377 48.5748C65.4241 52.0902 61.9205 54.6799 57.8604 56.36L58.6251 58.208ZM69.8934 49.8786C73.1836 46.1398 75.1819 42.2638 75.7991 38.2521L73.8223 37.9479C73.2769 41.4935 71.4965 45.0295 68.392 48.5574L69.8934 49.8786ZM75.7809 38.3425C76.2343 36.5289 76.4647 34.7758 76.4647 33.086H74.4647C74.4647 34.5935 74.2592 36.1831 73.8406 37.8575L75.7809 38.3425ZM76.4647 33.086C76.4647 31.531 76.2312 30.0431 75.7594 28.6278L73.862 29.2602C74.2622 30.4609 74.4647 31.7343 74.4647 33.086H76.4647ZM74.0736 28.2683C71.0868 31.5265 67.1514 33.176 62.1667 33.176V35.176C67.646 35.176 72.1399 33.3375 75.5479 29.6197L74.0736 28.2683ZM62.1667 33.176C57.282 33.176 53.3947 31.7864 50.4134 29.0761L49.068 30.5559C52.4813 33.659 56.8781 35.176 62.1667 35.176V33.176ZM50.4312 29.0926C47.4677 26.2638 45.9447 22.4031 45.9447 17.39H43.9447C43.9447 22.8409 45.6191 27.2642 49.0502 30.5394L50.4312 29.0926ZM45.9447 17.39C45.9447 12.7009 47.5182 8.98244 50.633 6.13847L49.2844 4.6615C45.7139 7.92155 43.9447 12.1965 43.9447 17.39H45.9447ZM50.6499 6.12263C53.7817 3.12705 57.8097 1.60399 62.8207 1.60399V-0.396014C57.3677 -0.396014 52.8211 1.27825 49.2675 4.67735L50.6499 6.12263Z" fill="#964F4C"/>
</svg>
