<svg width="84" height="62" viewBox="0 0 84 62" fill="none" xmlns="http://www.w3.org/2000/svg">
<path opacity="0.29" d="M50.6093 53.766L51.4559 53.2338L51.4488 53.2225L51.4413 53.2113L50.6093 53.766ZM47.1213 45.7L46.1565 45.9631L47.1213 45.7ZM51.6993 15.18L52.5405 15.7208L52.5451 15.7136L52.5496 15.7064L51.6993 15.18ZM68.7033 0.792005L69.5977 0.344792L69.1643 -0.52212L68.2842 -0.115954L68.7033 0.792005ZM70.6653 4.716L71.0477 5.64002L72.04 5.22938L71.5597 4.26879L70.6653 4.716ZM59.7653 12.782L60.516 13.4426L60.5236 13.434L60.531 13.4252L59.7653 12.782ZM54.0973 23.9L55.0674 24.1425L55.0786 24.0977L55.0857 24.0521L54.0973 23.9ZM54.0973 33.056L53.1486 33.3722L53.686 34.9845L54.8345 33.7317L54.0973 33.056ZM79.1673 32.184L79.8578 31.4606L79.849 31.4522L79.84 31.4441L79.1673 32.184ZM78.9493 56.6L78.275 55.8615L78.2665 55.8693L78.2581 55.8774L78.9493 56.6ZM5.7013 53.766L6.54793 53.2338L6.54079 53.2225L6.53334 53.2113L5.7013 53.766ZM2.21329 45.7L1.24853 45.9631L2.21329 45.7ZM6.7913 15.18L7.63247 15.7208L7.63707 15.7136L7.64156 15.7064L6.7913 15.18ZM23.7953 0.792001L24.6897 0.344788L24.2563 -0.522124L23.3762 -0.115958L23.7953 0.792001ZM25.7573 4.716L26.1397 5.64002L27.132 5.22938L26.6517 4.26878L25.7573 4.716ZM14.8573 12.782L15.608 13.4426L15.6156 13.434L15.623 13.4252L14.8573 12.782ZM9.1893 23.9L10.1594 24.1425L10.1706 24.0977L10.1777 24.0521L9.1893 23.9ZM9.1893 33.056L8.24061 33.3722L8.77804 34.9845L9.92645 33.7317L9.1893 33.056ZM34.2593 32.184L34.9498 31.4606L34.941 31.4522L34.932 31.4441L34.2593 32.184ZM34.0413 56.6L33.367 55.8615L33.3585 55.8693L33.3501 55.8774L34.0413 56.6ZM66.0873 60.396C59.2355 60.396 54.4339 57.9716 51.4559 53.2338L49.7627 54.2982C53.1793 59.7338 58.6964 62.396 66.0873 62.396L66.0873 60.396ZM51.4413 53.2113C50.061 51.1408 48.9369 48.5567 48.0861 45.4369L46.1565 45.9631C47.0497 49.238 48.2509 52.0312 49.7772 54.3207L51.4413 53.2113ZM48.0861 45.4369C47.2386 42.3297 46.8133 39.0758 46.8133 35.672L44.8133 35.672C44.8133 39.2442 45.26 42.6756 46.1565 45.9631L48.0861 45.4369ZM46.8133 35.672C46.8133 28.298 48.7246 21.6566 52.5405 15.7208L50.8581 14.6392C46.826 20.9114 44.8133 27.9313 44.8133 35.672L46.8133 35.672ZM52.5496 15.7064C56.2094 9.79438 61.714 5.11921 69.1224 1.69996L68.2842 -0.115954C60.578 3.44079 54.7466 8.35762 50.849 14.6537L52.5496 15.7064ZM67.8089 1.23922L69.7709 5.16321L71.5597 4.26879L69.5977 0.344792L67.8089 1.23922ZM70.2829 3.79198C65.9137 5.59994 62.1507 8.38755 58.9996 12.1388L60.531 13.4252C63.4839 9.90978 66.9875 7.32007 71.0477 5.64002L70.2829 3.79198ZM59.0146 12.1214C55.7244 15.8602 53.7261 19.7362 53.1089 23.7479L55.0857 24.0521C55.6311 20.5065 57.4115 16.9705 60.516 13.4426L59.0146 12.1214ZM53.1272 23.6575C52.6737 25.4711 52.4433 27.2242 52.4433 28.914L54.4433 28.914C54.4433 27.4065 54.6489 25.8169 55.0674 24.1425L53.1272 23.6575ZM52.4433 28.914C52.4433 30.469 52.6768 31.9569 53.1486 33.3722L55.046 32.7398C54.6458 31.5391 54.4433 30.2657 54.4433 28.914L52.4433 28.914ZM54.8345 33.7317C57.8212 30.4735 61.7566 28.824 66.7413 28.824L66.7413 26.824C61.262 26.824 56.7681 28.6625 53.3601 32.3803L54.8345 33.7317ZM66.7413 28.824C71.626 28.824 75.5133 30.2136 78.4946 32.9239L79.84 31.4441C76.4267 28.341 72.03 26.824 66.7413 26.824L66.7413 28.824ZM78.4768 32.9074C81.4403 35.7362 82.9633 39.5969 82.9633 44.61L84.9633 44.61C84.9633 39.1591 83.2889 34.7358 79.8578 31.4606L78.4768 32.9074ZM82.9633 44.61C82.9633 49.2991 81.3898 53.0176 78.275 55.8615L79.6236 57.3385C83.1941 54.0784 84.9633 49.8035 84.9633 44.61L82.9633 44.61ZM78.2581 55.8774C75.1263 58.8729 71.0983 60.396 66.0873 60.396L66.0873 62.396C71.5403 62.396 76.0869 60.7217 79.6405 57.3226L78.2581 55.8774ZM21.1793 60.396C14.3275 60.396 9.52593 57.9716 6.54793 53.2338L4.85465 54.2982C8.27133 59.7338 13.7884 62.396 21.1793 62.396L21.1793 60.396ZM6.53334 53.2113C5.15302 51.1408 4.02892 48.5567 3.17806 45.4369L1.24853 45.9631C2.14167 49.238 3.3429 52.0312 4.86924 54.3207L6.53334 53.2113ZM3.17806 45.4369C2.33065 42.3297 1.9053 39.0758 1.9053 35.672L-0.0947007 35.672C-0.094701 39.2442 0.351946 42.6756 1.24853 45.9631L3.17806 45.4369ZM1.9053 35.672C1.9053 28.298 3.8166 21.6566 7.63247 15.7208L5.95012 14.6392C1.91799 20.9114 -0.0947 27.9313 -0.0947007 35.672L1.9053 35.672ZM7.64156 15.7064C11.3014 9.79438 16.806 5.11921 24.2144 1.69996L23.3762 -0.115958C15.67 3.44079 9.83858 8.35762 5.94103 14.6536L7.64156 15.7064ZM22.9009 1.23921L24.8629 5.16321L26.6517 4.26878L24.6897 0.344788L22.9009 1.23921ZM25.3749 3.79198C21.0057 5.59994 17.2427 8.38755 14.0916 12.1388L15.623 13.4252C18.5759 9.90978 22.0795 7.32006 26.1397 5.64002L25.3749 3.79198ZM14.1066 12.1214C10.8164 15.8602 8.81812 19.7362 8.20092 23.7479L10.1777 24.0521C10.7231 20.5065 12.5035 16.9705 15.608 13.4426L14.1066 12.1214ZM8.21915 23.6575C7.76574 25.4711 7.5353 27.2242 7.5353 28.914L9.5353 28.914C9.5353 27.4065 9.74085 25.8169 10.1594 24.1425L8.21915 23.6575ZM7.5353 28.914C7.5353 30.469 7.76883 31.9569 8.24061 33.3722L10.138 32.7398C9.73777 31.5391 9.5353 30.2657 9.5353 28.914L7.5353 28.914ZM9.92645 33.7317C12.9132 30.4735 16.8486 28.824 21.8333 28.824L21.8333 26.824C16.354 26.824 11.8601 28.6625 8.45214 32.3803L9.92645 33.7317ZM21.8333 28.824C26.718 28.824 30.6053 30.2136 33.5866 32.9239L34.932 31.4441C31.5187 28.341 27.122 26.824 21.8333 26.824L21.8333 28.824ZM33.5688 32.9074C36.5323 35.7362 38.0553 39.5969 38.0553 44.61L40.0553 44.61C40.0553 39.1591 38.3809 34.7358 34.9498 31.4606L33.5688 32.9074ZM38.0553 44.61C38.0553 49.2991 36.4818 53.0176 33.367 55.8615L34.7156 57.3385C38.2861 54.0784 40.0553 49.8035 40.0553 44.61L38.0553 44.61ZM33.3501 55.8774C30.2183 58.8729 26.1903 60.396 21.1793 60.396L21.1793 62.396C26.6323 62.396 31.1789 60.7217 34.7325 57.3226L33.3501 55.8774Z" fill="#964F4C"/>
</svg>
